<svg xmlns="http://www.w3.org/2000/svg" width="215" height="55" fill="none" viewBox="0 0 215 55"><path fill="#F2F5F7" d="m79 23.3-.1-.8c0-.3-.2-.5-.4-.8a3.2 3.2 0 0 0-.8-.6 9.2 9.2 0 0 0-1.3-.7 31.8 31.8 0 0 1-2-.9 9 9 0 0 1-1.6-1c-.5-.5-1-1-1.2-1.5a4.4 4.4 0 0 1-.4-2 4.4 4.4 0 0 1 1.5-3.6c.5-.5 1.1-.8 1.8-1a7 7 0 0 1 2.3-.4c1.1 0 2.1.2 3 .7a5 5 0 0 1 1.9 2c.5.8.7 1.7.7 2.8h-3.6c0-.5 0-1-.2-1.4-.1-.4-.4-.7-.7-.9a2 2 0 0 0-1.2-.3c-.4 0-.8 0-1.1.3l-.7.7-.2 1 .2.9.6.6 1 .5 1 .5 2.2 1 1.6 1.3 1 1.6a5.9 5.9 0 0 1-.2 4 4.4 4.4 0 0 1-2.9 2.6 7.8 7.8 0 0 1-4.6 0 5 5 0 0 1-3.2-2.9 6.6 6.6 0 0 1-.5-2.6h3.6l.1 1.4c.1.4.3.7.5.9l.8.5 1.1.1c.5 0 .9 0 1.2-.2l.6-.7.2-1Zm9.2-5.8V28h-3.4V14.8H88l.2 2.7Zm-.5 3.4h-1c0-.9.1-1.7.3-2.5.2-.8.5-1.5.8-2 .4-.6.9-1 1.4-1.4a3.8 3.8 0 0 1 3.3-.2l1 .8c.3.4.6.9.7 1.5.2.6.3 1.3.3 2V28H91v-8.4c0-.6 0-1-.2-1.3a1.2 1.2 0 0 0-.5-.7l-.8-.2c-.3 0-.6.1-.8.3a2 2 0 0 0-.6.7 6 6 0 0 0-.5 2.6Zm6.5-.3-1.3.2c0-1 0-1.7.3-2.5.1-.7.4-1.4.7-2 .4-.5.8-1 1.4-1.3a3.7 3.7 0 0 1 1.9-.5l1.5.3c.4.2.8.5 1 .9.4.4.6.9.8 1.5.2.7.3 1.5.3 2.4V28h-3.5v-8.4l-.1-1.4-.5-.6a1.6 1.6 0 0 0-.8-.2c-.3 0-.6 0-.8.3a2 2 0 0 0-.5.6 3.7 3.7 0 0 0-.3 1l-.1 1.3Zm15 4.4v-6.1l-.2-1a1 1 0 0 0-.4-.5 1.2 1.2 0 0 0-.7-.2c-.3 0-.5 0-.7.2l-.5.5v.9h-3.5a4 4 0 0 1 1.3-3c.4-.4 1-.7 1.5-1 .6-.1 1.3-.3 2-.3.9 0 1.7.2 2.4.5.6.3 1.2.8 1.6 1.4.4.7.6 1.5.6 2.5v5.9l.1 1.8c0 .5.2.9.3 1.2v.2h-3.4a5.7 5.7 0 0 1-.3-1.4L109 25Zm.4-5v2h-1.3l-.8.1a1.9 1.9 0 0 0-1 1.1 2.9 2.9 0 0 0 0 1.7 1 1 0 0 0 1 .6c.4 0 .8 0 1-.2.3-.2.5-.3.6-.6.2-.2.2-.4.2-.6l.8 1.4a6 6 0 0 1-1 1.8l-1 .7a4 4 0 0 1-3.3-.2 3.6 3.6 0 0 1-1.4-1.4 4.9 4.9 0 0 1-.1-4c.2-.4.5-1 1-1.3.4-.4 1-.7 1.6-.9a7.9 7.9 0 0 1 2.3-.3h1.4Zm9-2.3V28H115V14.8h3.2l.2 3Zm3-3V18a2.4 2.4 0 0 0-2.1 0l-.7.6-.4.9-.1 1.1-.7-.2.2-2.4.6-1.9c.3-.5.6-1 1-1.2a2 2 0 0 1 1.3-.4h.5l.4.1Zm8.2 0v2.7H123v-2.6h6.8Zm-5.2-3.2h3.4v13.3l.4.4.6.1h.8v2.6a4.8 4.8 0 0 1-1.9.3c-.7 0-1.2 0-1.8-.3-.5-.3-.8-.7-1.1-1.3a5.3 5.3 0 0 1-.4-2.3V11.5ZM142.3 28H139v-3h3.2a3.7 3.7 0 0 0 2-.4c.5-.3.8-.8 1-1.5.2-.7.3-1.5.3-2.6v-2.8c0-.8 0-1.5-.2-2a3.4 3.4 0 0 0-.5-1.5 2.2 2.2 0 0 0-1-.8 4.2 4.2 0 0 0-1.6-.2h-3.2v-3h3.2a7.5 7.5 0 0 1 2.8.5 6 6 0 0 1 3.6 3.9c.3.9.4 2 .4 3.2v2.7c0 1.2-.1 2.3-.5 3.2a6.6 6.6 0 0 1-1.3 2.4 5.8 5.8 0 0 1-2.2 1.4c-.8.3-1.8.5-2.8.5Zm-1.1-17.8V28h-3.6V10.2h3.6Zm15.7 18c-.9 0-1.7 0-2.4-.4a4.8 4.8 0 0 1-2.9-3 8 8 0 0 1-.3-2.6V21c0-1.1 0-2 .3-2.9l1-2c.5-.6 1-1 1.7-1.2a5.5 5.5 0 0 1 4.4 0c.7.2 1.2.6 1.6 1.2.4.5.7 1.2 1 2 .1.8.3 1.7.3 2.8v1.5h-8.9v-2.4h5.5v-.3c0-.5 0-1-.2-1.3 0-.4-.3-.7-.5-.8a1.6 1.6 0 0 0-1-.3c-.3 0-.6 0-.8.2-.3.1-.5.3-.6.6l-.3 1.2-.1 1.7v1c0 .7 0 1.2.2 1.6 0 .4.2.7.4 1l.8.5a4 4 0 0 0 2.7-.1c.5-.2.9-.5 1.2-1l1.4 2.2a5.3 5.3 0 0 1-2.5 1.6c-.6.2-1.2.3-2 .3Zm10.4-2.8 2-10.6h3.6L169.3 28h-2.1v-2.6ZM166 14.8l2.2 10.6V28H166l-3.6-13.2h3.6Zm12.2 0V28h-3.4V14.8h3.4Zm-3.6-3.4c0-.5.2-1 .5-1.3.3-.4.8-.5 1.4-.5.5 0 1 .1 1.3.5.4.3.5.8.5 1.3s-.1 1-.5 1.3c-.3.3-.8.5-1.3.5-.6 0-1-.2-1.4-.5-.3-.4-.5-.8-.5-1.3Zm11 14c.4 0 .7 0 .9-.2.2-.1.4-.3.5-.6l.2-1.2h3.2a5 5 0 0 1-.6 2.6 4.3 4.3 0 0 1-1.7 1.7 5.8 5.8 0 0 1-4.7.1c-.7-.3-1.2-.7-1.6-1.2a5.7 5.7 0 0 1-1-2 11 11 0 0 1-.3-2.7v-1c0-1 0-1.9.3-2.7.2-.8.5-1.4 1-2 .4-.5 1-1 1.6-1.2a5.8 5.8 0 0 1 2.3-.4c1 0 1.8.2 2.5.6a4 4 0 0 1 1.6 1.7c.4.8.6 1.7.6 2.8h-3.2c0-.5 0-.9-.2-1.2 0-.4-.2-.6-.5-.8a1.3 1.3 0 0 0-.9-.3c-.3 0-.7 0-.9.3-.2.1-.4.3-.5.6l-.2 1.1-.1 1.5v2.5c0 .5.2.8.3 1.1l.5.7 1 .2Zm12.1 2.9c-.9 0-1.7-.2-2.4-.5a4.8 4.8 0 0 1-2.9-3 8 8 0 0 1-.3-2.6V21c0-1.1 0-2 .3-2.8.3-.9.6-1.5 1-2 .5-.7 1-1 1.7-1.3.7-.3 1.4-.4 2.3-.4.8 0 1.5.1 2.1.4.7.2 1.2.6 1.6 1.2.4.5.7 1.2 1 2 .2.8.3 1.7.3 2.8v1.5h-8.9v-2.4h5.5v-.3c0-.5 0-1-.2-1.3 0-.4-.2-.7-.5-.8a1.6 1.6 0 0 0-1-.3c-.3 0-.6 0-.8.2-.3.1-.5.4-.6.7l-.3 1.1-.1 1.7v1c0 .7 0 1.2.2 1.6 0 .4.2.7.4 1l.8.5a4 4 0 0 0 2.7-.1c.5-.2.9-.5 1.2-.9l1.4 2a5.3 5.3 0 0 1-2.5 1.8c-.6.2-1.2.3-2 .3Z"/><path fill="#fff" fill-opacity=".7" d="m72.6 45.3 1.7-5.6h1.5L73.3 47l-.3.5a3 3 0 0 1-.3.5l-.6.4a2 2 0 0 1-.8.2 5.8 5.8 0 0 1-.7-.1v-1.1a5.1 5.1 0 0 0 .3 0h.6a.8.8 0 0 0 .3-.4l.3-.5.5-1.2Zm-1-5.6 1.5 4.7.3 1.5-1 .2-2.3-6.4h1.5Zm8.8 4.6 1.9-4.6h1.2L80.9 46h-1l-2.6-6.3h1.2l1.9 4.6ZM78 39.7V46h-1.4v-6.3h1.4Zm4.5 6.3v-6.3H84V46h-1.4Zm7.4-3.7v1.1h-3.3v-1h3.2Zm-3-2.6V46h-1.3v-6.3H87Zm4 0V46h-1.4v-6.3H91Zm2.5 2h1.9c.5 0 1 0 1.4.2a2 2 0 0 1 1.2 2c0 .2 0 .5-.2.8a2 2 0 0 1-.5.7l-.8.4-1.1.2h-2.8v-6.3H94v5.2h1.4c.3 0 .5 0 .7-.2.1 0 .3-.2.3-.4a1.1 1.1 0 0 0 0-1 .9.9 0 0 0-.3-.4 1.3 1.3 0 0 0-.7-.1h-1.9v-1.1Zm7-2V46H99v-6.3h1.4Zm4.4 6.4c-.4 0-.9 0-1.2-.2a2.8 2.8 0 0 1-1.6-1.6 3.4 3.4 0 0 1-.2-1.2v-.3c0-.5 0-1 .2-1.3.1-.4.3-.8.6-1a2.7 2.7 0 0 1 2-1c.5 0 1 .1 1.2.3.4.1.7.3.9.6l.5 1 .2 1.2v.6h-5v-1h3.6c0-.3 0-.6-.2-.8 0-.2-.2-.4-.4-.5-.2-.2-.4-.2-.8-.2a1.2 1.2 0 0 0-1 .5c-.2.2-.2.5-.3.7l-.1 1v.1l.1.8c0 .3.2.5.3.6l.6.4a2 2 0 0 0 2.3-.6l.8.7a2.7 2.7 0 0 1-1.4 1 3.2 3.2 0 0 1-1 .2Zm9.6-6.4V46h-1.4v-6.3h1.4Zm2 0v1H111v-1h5.6ZM120 46c-.5 0-1 0-1.3-.2a2.8 2.8 0 0 1-1.6-1.6 3.4 3.4 0 0 1-.2-1.2v-.3l.2-1.3.6-1a2.7 2.7 0 0 1 2.1-1c.5 0 .9.1 1.2.3.3.1.6.3.8.6.3.3.4.6.5 1 .2.4.2.8.2 1.2v.6h-4.9v-1h3.5l-.1-.8-.5-.5c-.1-.2-.4-.2-.7-.2a1.2 1.2 0 0 0-1 .5l-.4.7V43.8l.4.6.5.4a2 2 0 0 0 2.4-.6l.7.7a2.7 2.7 0 0 1-1.3 1 3.2 3.2 0 0 1-1.1.2Zm4.7-6.4 1.2 2 1.2-2h1.6l-2 3 2 3.3h-1.5l-1.3-2.2-1.3 2.2H123l2-3.2-2-3.1h1.6Zm9.3 2.6v1.1h-3.3v-1h3.3Zm-2.9-2.6V46h-1.4v-6.3h1.4Zm4 0V46h-1.5v-6.3h1.4Zm1.1 3.2v-.1l.2-1.3.6-1c.3-.3.6-.6 1-.7a3 3 0 0 1 1.2-.3c.4 0 .9.1 1.2.3.4.1.7.4 1 .7l.5 1c.2.4.2.8.2 1.3v.1c0 .5 0 .9-.2 1.3a2.7 2.7 0 0 1-2.7 2 3.1 3.1 0 0 1-1.3-.3 2.8 2.8 0 0 1-1.5-1.7 4 4 0 0 1-.2-1.3Zm1.4-.1v.1l.1.8.3.7a1.3 1.3 0 0 0 1.2.6 1.4 1.4 0 0 0 1.1-.6c.2-.2.3-.4.3-.7l.1-.8V42a2 2 0 0 0-.4-.7 1.4 1.4 0 0 0-1.1-.6l-.7.1-.5.5a2 2 0 0 0-.3.7v.8Zm9.9-3.1v1h-3.1v-1h3Zm1 0V46h-1.3v-6.3h1.4Zm-4.5 0h1.4l-.1 3-.2 1.3a4.1 4.1 0 0 1-.2 1 1.7 1.7 0 0 1-1 .9 2.3 2.3 0 0 1-.8.1h-.4v-1.2h.2a.9.9 0 0 0 .4 0c0-.2.2-.2.3-.4l.2-.4a13 13 0 0 0 .1-1.6l.1-2.7Zm5.8 3.2v-.1c0-.5 0-1 .2-1.3.2-.4.3-.7.6-1 .2-.3.6-.6 1-.7a3 3 0 0 1 1.2-.3l1.2.3a2.7 2.7 0 0 1 1.5 1.7l.2 1.3v.1c0 .5 0 .9-.2 1.3a2.7 2.7 0 0 1-2.7 2 3.1 3.1 0 0 1-1.3-.3 3 3 0 0 1-.9-.7c-.3-.3-.4-.6-.6-1a4 4 0 0 1-.2-1.3Zm1.4-.1v.1l.1.8c0 .3.2.5.3.7a1.3 1.3 0 0 0 1.2.6 1.3 1.3 0 0 0 1.1-.6c.2-.2.2-.4.3-.7l.1-.8V42a2 2 0 0 0-.4-.7 1.4 1.4 0 0 0-1.1-.6l-.7.1-.5.5a2 2 0 0 0-.3.7v.8Zm10-3.1v1h-2.9V46h-1.4v-6.3h4.2Zm2.2 4.2 2.5-4.2h1.4V46h-1.4v-4.3l-2.5 4.3h-1.4v-6.3h1.4v4.2Zm6.8 0 2.5-4.2h1.4V46h-1.4v-4.3l-2.5 4.3h-1.4v-6.3h1.4v4.2Z"/><path fill="#00B2FF" d="M34 14.7c1.1 0 2.1.7 2.5 1.8H46a2.8 2.8 0 1 1 0 1.8h-9.5a2.8 2.8 0 1 1-2.6-3.6Zm14.6 3.6a1 1 0 1 0 0-1.8 1 1 0 0 0 0 1.8Zm-14.7 0a1 1 0 1 0 0-1.8 1 1 0 0 0 0 1.8Z"/><path fill="#00B2FF" d="M26.6 20.3v-5.6c0-.3 0-.5.2-.7l3.7-3.7.7-.2H34a2.8 2.8 0 1 1 0 1.8h-2.6l-3 3.1v5.3a2.8 2.8 0 1 1-2 0Zm10-8.4a1 1 0 1 0 0-1.8 1 1 0 0 0 0 1.8Zm-9.1 12a1 1 0 1 0 0-1.9 1 1 0 0 0 0 1.8Zm-17.4 0c.4 0 .8 0 1.2.2l1.5-1.6v-8.8l.3-.6 9.2-9.2a2.8 2.8 0 1 1 2.4 1.6c-.4 0-.8-.1-1.1-.3l-9 9v8.7c0 .3 0 .5-.2.7l-1.8 1.8a2.8 2.8 0 1 1-2.5-1.6ZM24.8 3.6a1 1 0 1 0 0-1.9 1 1 0 0 0 0 1.9ZM10 27.5a1 1 0 1 0 0-1.8 1 1 0 0 0 0 1.8ZM1.8 13V9.2c0-.3.1-.5.3-.7l6.4-6.4c.2-.2.4-.3.7-.3h4.7a2.8 2.8 0 1 1 0 1.9H9.6l-6 5.9V13a2.8 2.8 0 1 1-1.8 0Zm14.7-9.3a1 1 0 1 0 0-1.9 1 1 0 0 0 0 1.9ZM2.7 16.5a1 1 0 1 0 0-1.8 1 1 0 0 0 0 1.8Zm12 33.2V36.5a2.8 2.8 0 1 1 3.5-3.5h9.5a2.8 2.8 0 0 1 2.6-1.8c1.1 0 2.1.7 2.5 1.8h5.3l3.4-3.4a2.8 2.8 0 1 1 2.5 1.6l-1.2-.3-3.6 3.7a1 1 0 0 1-.7.2h-5.7a2.8 2.8 0 0 1-2.5 1.9c-1.3 0-2.3-.8-2.6-1.9h-9.5a2.8 2.8 0 0 1-1.7 1.7v13.2a2.8 2.8 0 1 1-1.8 0ZM44 29.3a1 1 0 1 0 0-1.8 1 1 0 0 0 0 1.8Zm-13.8 5.5a1 1 0 1 0 0-1.8 1 1 0 0 0 0 1.8ZM15.7 53.2a1 1 0 1 0 0-1.9 1 1 0 0 0 0 1.9Zm0-18.4a1 1 0 1 0 0-1.8 1 1 0 0 0 0 1.8Z"/><path fill="#00B2FF" d="M19.3 18.5v-3c0-.2 0-.4.2-.6l11-11A2.8 2.8 0 0 1 33 0c1.2 0 2.2.8 2.6 1.8h3.8c.5 0 1 .4 1 1V5l3.3 3.4a2.8 2.8 0 1 1-1.5 2.5c0-.4 0-.8.2-1.2l-3.6-3.6a1 1 0 0 1-.3-.7V3.7h-3a2.8 2.8 0 0 1-3.7 1.5L21.1 16v2.5a2.8 2.8 0 1 1-1.9 0Zm25.6-6.6a1 1 0 1 0 0-1.8 1 1 0 0 0 0 1.8ZM33 3.7a1 1 0 1 0 0-1.9 1 1 0 0 0 0 1.9ZM20.2 22a1 1 0 1 0 0-1.8 1 1 0 0 0 0 1.8Z"/><path fill="#00B2FF" d="M22 25.7c1.2 0 2.2.7 2.6 1.8h10.8l5.2-5.2.6-.3H51l2.3-2.2v-7.5l-7.1-7a2.8 2.8 0 1 1 1.6-2.6c0 .5-.1.9-.3 1.2l7.3 7.4c.2.1.3.4.3.6v8.3l-.3.6-2.7 2.8a1 1 0 0 1-.7.2h-9.7l-5.2 5.3a1 1 0 0 1-.7.2H24.6a2.8 2.8 0 1 1-2.6-3.6ZM45 1.8a1 1 0 1 0 0 1.9 1 1 0 0 0 0-1.9ZM22 29.3a1 1 0 1 0 0-1.8 1 1 0 0 0 0 1.8ZM2.7 22c.5 0 .9.1 1.2.3l3.4-3.4v-5.3a2.8 2.8 0 1 1 1.9 0v5.7l-.3.6-3.7 3.7a2.7 2.7 0 0 1-1.5 3.7v.7l7 7.1.3.6v1.1a2.8 2.8 0 0 1 1.8 2.6c0 1.2-.7 2.2-1.8 2.6v2.2a2.8 2.8 0 1 1-1.8 0V42a2.8 2.8 0 0 1-1.9-2.6c0-1.2.8-2.2 1.9-2.6v-.7l-7.1-7a1 1 0 0 1-.3-.7v-1a2.8 2.8 0 0 1 1-5.4Zm5.5-10a1 1 0 1 0 0-2 1 1 0 0 0 0 2Zm1.9 35.7a1 1 0 1 0 0-1.9 1 1 0 0 0 0 1.9Zm0-7.4a1 1 0 1 0 0-1.8 1 1 0 0 0 0 1.8ZM2.8 25.7a1 1 0 1 0 0-1.9 1 1 0 0 0 0 1.9Z"/></svg>